<?xml version="1.0" encoding="UTF-8" standalone="no"?>
<svg
   xmlns:dc="http://purl.org/dc/elements/1.1/"
   xmlns:cc="http://creativecommons.org/ns#"
   xmlns:rdf="http://www.w3.org/1999/02/22-rdf-syntax-ns#"
   xmlns:svg="http://www.w3.org/2000/svg"
   xmlns="http://www.w3.org/2000/svg"
   id="svg1264"
   version="1.1"
   viewBox="0 0 67.73333 67.733335"
   height="256"
   width="256">
  <defs
     id="defs1258" />
  <metadata
     id="metadata1261">
    <rdf:RDF>
      <cc:Work
         rdf:about="">
        <dc:format>image/svg+xml</dc:format>
        <dc:type
           rdf:resource="http://purl.org/dc/dcmitype/StillImage" />
        <dc:title></dc:title>
      </cc:Work>
    </rdf:RDF>
  </metadata>
  <g
     transform="translate(0,-229.26665)"
     id="layer1">
    <path
       id="path1933"
       transform="matrix(0.26458333,0,0,0.26458333,0,229.26665)"
       d="M 229.25195 19.5625 C 215.5086 19.881114 204.53248 31.356238 204.85156 45.091797 C 204.93423 48.650448 205.77114 52.020889 207.19922 55.058594 L 165.40234 78.910156 L 125.48438 55.759766 L 81.591797 81.21875 L 81.591797 127.80664 L 41.806641 157.52539 C 36.616688 152.79896 29.487406 150.25291 22.005859 151.15039 C 8.3567754 152.78772 -1.4582425 165.271 0.18164062 178.91211 C 1.8215253 192.55333 14.313791 202.35413 27.962891 200.7168 C 41.61199 199.07947 51.427028 186.60216 49.787109 172.96094 C 49.387804 169.63941 48.341211 166.54812 46.794922 163.79102 L 85.869141 134.59766 L 121.48438 155.25781 L 121.48438 186.85547 C 114.06179 187.98693 107.21672 192.412 103.32812 199.45703 C 96.687933 211.48727 101.10273 226.72421 113.14258 233.35547 C 125.18244 239.98669 140.436 235.58293 147.07617 223.55273 C 153.7163 211.52257 149.30741 196.27973 137.26758 189.64844 C 134.77717 188.27678 132.14741 187.38483 129.48633 186.92773 L 129.48633 155.25781 L 165.04688 134.63281 L 209.70312 169.76172 C 205.84882 176.11924 204.8383 184.11952 207.67188 191.57422 C 212.55383 204.41792 227.03604 210.92175 239.88867 206.04688 C 252.74131 201.172 259.25891 186.70308 254.37695 173.85938 C 249.495 161.01567 235.00303 154.50599 222.15039 159.38086 C 219.42959 160.41283 216.99692 161.87826 214.89258 163.66406 L 169.38477 127.87109 L 169.38477 85.845703 L 211.73047 61.681641 C 216.4258 66.613777 223.10155 69.634305 230.41211 69.464844 C 244.15547 69.14623 255.12572 57.671068 254.80664 43.935547 C 254.48757 30.199988 242.99531 19.243924 229.25195 19.5625 z M 229.4375 27.554688 C 238.86313 27.336231 246.58807 34.710574 246.80664 44.119141 C 247.02521 53.527708 239.65219 61.246349 230.22656 61.464844 C 220.80094 61.6833 213.07013 54.314817 212.85156 44.90625 C 212.63299 35.497683 220.01188 27.773182 229.4375 27.554688 z M 125.48438 65.007812 L 157.41602 83.525391 L 125.48438 102.04297 L 93.560547 83.525391 L 125.48438 65.007812 z M 89.59375 90.470703 L 121.48438 108.97266 L 121.48438 146.00781 L 89.59375 127.50391 L 89.59375 90.470703 z M 161.38281 90.470703 L 161.38281 127.51172 L 129.48633 146.00781 L 129.48633 108.9707 L 161.38281 90.470703 z M 24.703125 158.97266 C 33.342953 158.80662 40.788683 165.15402 41.841797 173.91406 C 42.965122 183.25815 36.368638 191.64859 27.007812 192.77148 C 17.646987 193.89442 9.2424408 187.30503 8.1191406 177.96094 C 6.9958337 168.61689 13.600123 160.21665 22.960938 159.09375 C 23.545988 159.02357 24.127136 158.98373 24.703125 158.97266 z M 231.66406 165.75 C 238.27951 165.98388 244.38806 170.09798 246.89648 176.69727 C 250.24105 185.49631 245.85829 195.22556 237.04492 198.56836 C 228.23155 201.9112 218.49105 197.53732 215.14648 188.73828 C 211.80192 179.93924 216.18077 170.20413 224.99414 166.86133 C 227.19748 166.02562 229.45891 165.67204 231.66406 165.75 z M 125.30859 194.52344 C 128.04503 194.54541 130.82073 195.23349 133.40039 196.6543 C 141.6553 201.20092 144.62391 211.45449 140.07422 219.69727 C 135.52453 227.94008 125.2608 230.90404 117.00586 226.35742 C 108.75093 221.81084 105.78037 211.5573 110.33008 203.31445 C 113.45799 197.64752 119.28843 194.47509 125.30859 194.52344 z "
       style="color:#000000;font-style:normal;font-variant:normal;font-weight:normal;font-stretch:normal;font-size:medium;line-height:normal;font-family:sans-serif;font-variant-ligatures:normal;font-variant-position:normal;font-variant-caps:normal;font-variant-numeric:normal;font-variant-alternates:normal;font-feature-settings:normal;text-indent:0;text-align:start;text-decoration:none;text-decoration-line:none;text-decoration-style:solid;text-decoration-color:#000000;letter-spacing:normal;word-spacing:normal;text-transform:none;writing-mode:lr-tb;direction:ltr;text-orientation:mixed;dominant-baseline:auto;baseline-shift:baseline;text-anchor:start;white-space:normal;shape-padding:0;clip-rule:nonzero;display:inline;overflow:visible;visibility:visible;opacity:1;isolation:auto;mix-blend-mode:normal;color-interpolation:sRGB;color-interpolation-filters:linearRGB;solid-color:#000000;solid-opacity:1;vector-effect:none;fill:#444444;fill-opacity:1;fill-rule:nonzero;stroke:none;stroke-width:7.99999952;stroke-linecap:butt;stroke-linejoin:miter;stroke-miterlimit:4;stroke-dasharray:none;stroke-dashoffset:19.51937103;stroke-opacity:1;color-rendering:auto;image-rendering:auto;shape-rendering:auto;text-rendering:auto;enable-background:accumulate" />
  </g>
</svg>
